# xmcd CD database file
#
# Track frame offsets:
#	150
#	16165
#	31446
#	50405
#	70788
#	94792
#	113585
#	142510
#	163487
#	186126
#	208460
#
# Disc length: 3112 seconds
#
# Revision: 0
# Processed by: cddbd v1.5.1PL0 Copyright (c) Steve Scherf et al.
# Submitted via: CDex 1.51
#
DISCID=930c260b
DTITLE=Leila Adu - Dig A Hole
DYEAR=2002
DGENRE=Jazz
TTITLE0=I'm Calling
TTITLE1=Sweet Indulgence
TTITLE2=I Want To Be In Your Arms
TTITLE3=Suspended Disbelief
TTITLE4=Pictures
TTITLE5=Alkimiy
TTITLE6=Great Spirit
TTITLE7=Want Not Wanting
TTITLE8=Guardian Angel
TTITLE9=Valentine
TTITLE10=Dig A Hole
EXTD=YEAR: 2002
EXTT0=
EXTT1=
EXTT2=
EXTT3=
EXTT4=
EXTT5=
EXTT6=
EXTT7=
EXTT8=
EXTT9=
EXTT10=
PLAYORDER=
